# xmcd
#
# Track frame offsets: 
#        150
#        15463
#        34623
#        52406
#        71565
#        94320
#        112171
#        135614
#        151597
#        166426
#        187265
#        200451
#        212659
#        226698
#        241434
#        252295
#        277765
#        293286
#        313780
#        330158
#        344012
#
# Disc length: 4780 seconds
#
# Revision: 0
# Processed by: cddbd v1.5.2PL0 Copyright (c) Steve Scherf et al.
# Submitted via: ExactAudioCopy v0.99pb4
#
DISCID=2d12aa15
DTITLE=Various Artist - 100 Essential Tracks - Disco Hits - CD5
DYEAR=2010
DGENRE=Disco
TTITLE0=Dan Hartman - Instant Replay
TTITLE1=George Clinton - Loopzilla
TTITLE2=Brass Construction - Ha Cha Cha (Funkion)
TTITLE3=Locksmith - Unlock The Funk
TTITLE4=Keni Burke - Let Somebody Love You
TTITLE5=Kathy Sledge - Take Me Back To Love Again
TTITLE6=Desmond Child and Rouge - Our Love Is Insane
TTITLE7=Harold Melvin and The Blue Notes - The Love I Lost
TTITLE8=Gwen McCrae - Rockin' Chair
TTITLE9=Marvin Gaye - Masochistic Beauty
TTITLE10=The Hues Corporation - Rockin' Soul
TTITLE11=Raffaella Carrà - Do It Do It Again (A Far L'Amore Comincia T
TTITLE11=u)
TTITLE12=The Jacksons - Think Happy
TTITLE13=The Trammps - Zing Went The Strings Of My Heart
TTITLE14=The Intruders - (Win, Place Or Show) She's A Winner
TTITLE15=Hot Chocolate - Put Your Love In Me
TTITLE16=The Pointer Sisters - Fire
TTITLE17=Cheryl Lynn - Encore
TTITLE18=G.Q. - Disco Nights (Rock Freak)
TTITLE19=Lonnie Liston Smith - Expansions
TTITLE20=Gladys Knight and The Pips - Baby Don't Change Your Mind
EXTD=
EXTT0=
EXTT1=
EXTT2=
EXTT3=
EXTT4=
EXTT5=
EXTT6=
EXTT7=
EXTT8=
EXTT9=
EXTT10=
EXTT11=
EXTT12=
EXTT13=
EXTT14=
EXTT15=
EXTT16=
EXTT17=
EXTT18=
EXTT19=
EXTT20=
PLAYORDER=
